<svg width="500" height="500" viewBox="0 0 500 500" fill="none" xmlns="http://www.w3.org/2000/svg">
<circle cx="250" cy="250" r="250" fill="url(#paint0_linear_1_14)"/>
<path d="M302.004 121.483C303.589 122.4 304.816 123.827 305.483 125.53C306.151 127.233 306.22 129.112 305.68 130.859L276.514 225.463L330.328 225.463C331.91 225.462 333.457 225.924 334.779 226.791C336.1 227.658 337.139 228.892 337.766 230.341C338.393 231.791 338.581 233.392 338.306 234.946C338.032 236.501 337.308 237.942 336.223 239.09L206.666 376.501C205.413 377.832 203.745 378.699 201.934 378.962C200.123 379.225 198.276 378.868 196.695 377.95C195.113 377.031 193.89 375.605 193.225 373.903C192.559 372.201 192.491 370.325 193.031 368.58L222.197 273.96L168.382 273.96C166.801 273.961 165.254 273.499 163.932 272.632C162.611 271.765 161.572 270.531 160.945 269.082C160.318 267.632 160.13 266.031 160.404 264.477C160.678 262.922 161.403 261.481 162.487 260.332L292.044 122.922C293.296 121.593 294.962 120.726 296.77 120.462C298.578 120.198 300.423 120.552 302.004 121.467L302.004 121.483Z" fill="white"/>
<defs>
<linearGradient id="paint0_linear_1_14" x1="79" y1="63" x2="434" y2="425" gradientUnits="userSpaceOnUse">
<stop stop-color="#8B5CF6"/>
<stop offset="1" stop-color="#D946EF"/>
</linearGradient>
</defs>
</svg>
